<svg xmlns="http://www.w3.org/2000/svg" viewBox="0 0 135.51 150.39"><defs><style>.cls-1,.cls-2{fill:#fff;}.cls-2{font-size:33.47px;font-family:Merriweather-Bold, Merriweather;font-weight:700;}</style></defs><title>Asset 5</title><g id="Layer_2" data-name="Layer 2"><g id="Layer_1-2" data-name="Layer 1"><path class="cls-1" d="M63.5,0H72c0,.27.2.18.33.2,1,.12,2,.2,3,.35A49.62,49.62,0,0,1,117,44.32,49.55,49.55,0,0,1,117,55.41a48.8,48.8,0,0,1-2.68,11.22A49.76,49.76,0,0,1,85.75,95.81a47.94,47.94,0,0,1-12.42,3l-2.8.29H64.85a12.75,12.75,0,0,0-2-.18c-1.4-.15-2.8-.31-4.17-.58a51.12,51.12,0,0,1-10-3,49.38,49.38,0,0,1-16.5-11.2c-.82-.84-.82-.83.1-1.52C40,77,47.63,71.2,55.41,65.65a.5.5,0,0,1,.65-.05,6.8,6.8,0,0,0,3.48.93.94.94,0,0,1,.85.48c1.17,1.66,2.23,3.4,3.55,4.95A.7.7,0,0,1,64,73a2.11,2.11,0,0,0-.31.55A1.6,1.6,0,0,0,64,75.42c.46.53,1,.4,1.59.22a9.28,9.28,0,0,0,2.14-1.17c1.16-.72,1.17-.73,2.23.13,1.29,1.05,2.3,3.32,1.09,5.14a4.81,4.81,0,0,0-.63,1.38A1.92,1.92,0,0,0,72,83.63a6.24,6.24,0,0,0,1.83,0,22.09,22.09,0,0,0,6.73-2.39,71.64,71.64,0,0,0,9.55-6.35A52.79,52.79,0,0,0,98.82,67a8.44,8.44,0,0,0,2-3.41,1.94,1.94,0,0,0-1.49-2.48,4.34,4.34,0,0,0-2.42.12.67.67,0,0,1-.6,0,12.14,12.14,0,0,1-1.93-1.15,3.51,3.51,0,0,1-1.5-2.81.77.77,0,0,1,.27-.64c.59-.53,1.27-1,1.9-1.42a1.81,1.81,0,0,0,.8-1.94c-.27-.82-.73-1.11-1.78-1.11a3.64,3.64,0,0,0-.74,0,.64.64,0,0,1-.68-.34C86.49,42.94,80.33,34.06,74,25.32a.51.51,0,0,1,0-.69,3.45,3.45,0,0,0,.57-1.05,1.45,1.45,0,0,0-1.71-1.87,3.24,3.24,0,0,0-.79.28c-.76.36-1.43.87-2.16,1.29a.76.76,0,0,1-.67.18,4.1,4.1,0,0,1-2.37-5.41,13.06,13.06,0,0,0,.78-1.65,1.85,1.85,0,0,0-1.55-2.56,6.17,6.17,0,0,0-1.87.06A23.07,23.07,0,0,0,58.26,16a62,62,0,0,0-11.94,7.64,43.36,43.36,0,0,0-6.94,6.6,10,10,0,0,0-2,3.58,2,2,0,0,0,1.93,2.7,6.64,6.64,0,0,0,2.13-.18.74.74,0,0,1,.65,0,16.19,16.19,0,0,1,1.85,1.19A3.46,3.46,0,0,1,45.24,40a.63.63,0,0,1-.37.71,4.75,4.75,0,0,0-2.39,2.79,1.36,1.36,0,0,0,1,1.83,4.13,4.13,0,0,0,1.4.11.58.58,0,0,1,.57.28c1,1.48,2,3,3.11,4.41a1.84,1.84,0,0,1,.36,2.06,8.11,8.11,0,0,0-.2,3.11.77.77,0,0,1-.4.75l-8.39,5.57Q32,66.84,24.15,72.07c-.43.29-.56.17-.75-.22a51.71,51.71,0,0,1-3-7.38,47.88,47.88,0,0,1-1.95-9.25c-.11-.95-.2-1.9-.3-2.85V46.8a.44.44,0,0,0,.08-.35,33.51,33.51,0,0,1,.36-3.75A49.55,49.55,0,0,1,37,10.67,48.86,48.86,0,0,1,63.17.2C63.3.19,63.51.26,63.5,0Z"/><text class="cls-2" transform="translate(0 141.26)">Silelang</text></g></g></svg>