<svg xmlns="http://www.w3.org/2000/svg" viewBox="0 0 99.14 99.15"><defs><style>.cls-1{fill:#fff;}</style></defs><title>Asset 3</title><g id="Layer_2" data-name="Layer 2"><g id="Layer_1-2" data-name="Layer 1"><path class="cls-1" d="M45.32,0h8.5c0,.27.2.18.33.2,1,.12,2,.2,3,.35A49.65,49.65,0,0,1,98.86,44.32a49.69,49.69,0,0,1-31.3,51.49,47.87,47.87,0,0,1-12.41,3l-2.8.29H46.67a12.87,12.87,0,0,0-2-.18c-1.4-.15-2.8-.31-4.18-.58a51.12,51.12,0,0,1-10-3,49.24,49.24,0,0,1-16.49-11.2c-.82-.84-.83-.83.1-1.52,7.64-5.75,15.28-11.5,23.07-17a.5.5,0,0,1,.65-.05,6.78,6.78,0,0,0,3.48.93.92.92,0,0,1,.84.48c1.17,1.66,2.24,3.4,3.56,4.95a.71.71,0,0,1,0,1.07,1.86,1.86,0,0,0-.31.55,1.6,1.6,0,0,0,.3,1.84c.47.53,1,.4,1.6.22a9.42,9.42,0,0,0,2.13-1.17c1.17-.72,1.17-.73,2.23.13,1.3,1.05,2.3,3.32,1.1,5.14a4.55,4.55,0,0,0-.63,1.38,1.92,1.92,0,0,0,1.61,2.51,6.23,6.23,0,0,0,1.83,0,22.14,22.14,0,0,0,6.74-2.39,71.54,71.54,0,0,0,9.54-6.35A52,52,0,0,0,80.63,67a8.33,8.33,0,0,0,2-3.41,1.93,1.93,0,0,0-1.48-2.48,4.37,4.37,0,0,0-2.43.12.66.66,0,0,1-.6,0,12.6,12.6,0,0,1-1.93-1.15,3.5,3.5,0,0,1-1.49-2.81.77.77,0,0,1,.26-.64c.6-.53,1.27-1,1.91-1.42a1.83,1.83,0,0,0,.8-1.94c-.28-.82-.74-1.11-1.79-1.11a3.57,3.57,0,0,0-.73,0,.64.64,0,0,1-.69-.34C68.3,42.94,62.15,34.06,55.8,25.32a.49.49,0,0,1,0-.69,3.22,3.22,0,0,0,.56-1.05,1.45,1.45,0,0,0-1.71-1.87,3.17,3.17,0,0,0-.78.28c-.76.36-1.44.87-2.16,1.29a.77.77,0,0,1-.68.18,4.1,4.1,0,0,1-2.36-5.41,14.6,14.6,0,0,0,.78-1.65,1.85,1.85,0,0,0-1.55-2.56A6.16,6.16,0,0,0,46,13.9a23.27,23.27,0,0,0-6,2.12,62.27,62.27,0,0,0-11.94,7.64,43.3,43.3,0,0,0-6.93,6.6,10,10,0,0,0-2,3.58,2,2,0,0,0,1.94,2.7,6.66,6.66,0,0,0,2.13-.18.75.75,0,0,1,.65,0,16.19,16.19,0,0,1,1.85,1.19A3.46,3.46,0,0,1,27.06,40a.65.65,0,0,1-.37.71,4.76,4.76,0,0,0-2.4,2.79,1.37,1.37,0,0,0,1,1.83,4.19,4.19,0,0,0,1.41.11.57.57,0,0,1,.56.28c1,1.48,2,3,3.11,4.41a1.84,1.84,0,0,1,.37,2.06,7.73,7.73,0,0,0-.2,3.11.78.78,0,0,1-.41.75l-8.39,5.57Q13.85,66.84,6,72.07c-.43.29-.56.17-.75-.22a53,53,0,0,1-3-7.38A48.64,48.64,0,0,1,.29,55.22c-.1-.95-.19-1.9-.29-2.85V46.8c.1-.1.07-.23.08-.35A33.5,33.5,0,0,1,.43,42.7,49.58,49.58,0,0,1,6,25.84,49.57,49.57,0,0,1,45,.2C45.12.19,45.32.26,45.32,0Z"/></g></g></svg>