<svg xmlns="http://www.w3.org/2000/svg" xmlns:xlink="http://www.w3.org/1999/xlink" viewBox="0 0 99.14 98.86"><defs><style>.cls-1{fill:url(#linear-gradient);}</style><linearGradient id="linear-gradient" x1="-13.13" y1="109.21" x2="49.46" y2="49.51" gradientUnits="userSpaceOnUse"><stop offset="0" stop-color="#21409a"/><stop offset="1" stop-color="#61aaed"/></linearGradient></defs><title>Asset 7</title><g id="Layer_2" data-name="Layer 2"><g id="Layer_1-2" data-name="Layer 1"><path class="cls-1" d="M45.32,0h8.5c0,.27.2.18.33.2,1,.12,2,.2,3,.35A49.57,49.57,0,0,1,88.77,19.18a49.31,49.31,0,0,1-5.2,66.23,49.17,49.17,0,0,1-16,10.12,47.85,47.85,0,0,1-12.41,3l-2.8.29H46.67a11.71,11.71,0,0,0-2-.18c-1.4-.15-2.8-.31-4.18-.58a49.9,49.9,0,0,1-17.19-6.66A49.43,49.43,0,0,1,14.06,84c-.82-.84-.83-.82.1-1.52,7.64-5.72,15.28-11.46,23.07-17a.52.52,0,0,1,.65,0,7,7,0,0,0,3.48.93.93.93,0,0,1,.84.47c1.17,1.66,2.24,3.39,3.56,4.94a.71.71,0,0,1,0,1.07,1.81,1.81,0,0,0-.31.54,1.6,1.6,0,0,0,.3,1.84c.47.53,1,.4,1.6.22a9.79,9.79,0,0,0,2.13-1.16c1.17-.73,1.17-.73,2.23.12,1.3,1,2.3,3.31,1.1,5.13a4.61,4.61,0,0,0-.63,1.37,1.91,1.91,0,0,0,1.61,2.5,5.91,5.91,0,0,0,1.83,0A21.86,21.86,0,0,0,62.38,81a71.4,71.4,0,0,0,9.54-6.33,51.88,51.88,0,0,0,8.71-7.9,8.23,8.23,0,0,0,2-3.4,1.93,1.93,0,0,0-1.48-2.47A4.37,4.37,0,0,0,78.7,61a.66.66,0,0,1-.6,0,12.6,12.6,0,0,1-1.93-1.15,3.46,3.46,0,0,1-1.49-2.8.78.78,0,0,1,.26-.64c.6-.53,1.27-.94,1.91-1.42a1.79,1.79,0,0,0,.8-1.92c-.28-.82-.74-1.11-1.79-1.12a5.94,5.94,0,0,0-.73,0,.64.64,0,0,1-.69-.33C68.3,42.81,62.15,34,55.8,25.25a.49.49,0,0,1,0-.69,3.22,3.22,0,0,0,.56-1,1.45,1.45,0,0,0-1.71-1.87,3.66,3.66,0,0,0-.78.29c-.76.35-1.44.86-2.16,1.28a.77.77,0,0,1-.68.18A4.08,4.08,0,0,1,48.67,18a14.6,14.6,0,0,0,.78-1.65A1.85,1.85,0,0,0,47.9,13.8a6.16,6.16,0,0,0-1.87.06,22.88,22.88,0,0,0-6,2.11,62.66,62.66,0,0,0-11.94,7.62,42.8,42.8,0,0,0-6.93,6.59,10,10,0,0,0-2,3.56,2,2,0,0,0,1.94,2.69,6.39,6.39,0,0,0,2.13-.18.75.75,0,0,1,.65,0,14.86,14.86,0,0,1,1.85,1.18,3.46,3.46,0,0,1,1.33,2.41.64.64,0,0,1-.37.7,4.75,4.75,0,0,0-2.4,2.78,1.36,1.36,0,0,0,1,1.82,4,4,0,0,0,1.41.12.56.56,0,0,1,.56.27c1,1.48,2,3,3.11,4.4A1.83,1.83,0,0,1,30.74,52a7.73,7.73,0,0,0-.2,3.11.77.77,0,0,1-.41.74c-2.8,1.85-5.59,3.71-8.39,5.55C16.48,64.91,11.22,68.37,6,71.86c-.43.29-.56.17-.75-.22a52.59,52.59,0,0,1-3-7.35A48.6,48.6,0,0,1,.29,55.06c-.1-1-.19-1.9-.29-2.85V46.66c.1-.1.07-.22.08-.34a33.5,33.5,0,0,1,.35-3.75A49.46,49.46,0,0,1,18.8,10.64,48.89,48.89,0,0,1,45,.2C45.12.19,45.32.26,45.32,0Z"/></g></g></svg>